<svg xmlns="http://www.w3.org/2000/svg" width="560" height="360" viewBox="40 40 480 280">
  <defs>
    <linearGradient id="nebula" x1="0" y1="0" x2="1" y2="1">
      <stop offset="0%" stop-color="#1a2a4a"/>
      <stop offset="60%" stop-color="#223a6a"/>
      <stop offset="100%" stop-color="#3a2f6f"/>
    </linearGradient>
    <linearGradient id="tardis" x1="0" y1="0" x2="0" y2="1">
      <stop offset="0%" stop-color="#3b6fff"/>
      <stop offset="100%" stop-color="#2042a8"/>
    </linearGradient>
  </defs>

  <rect x="40" y="40" width="480" height="280" rx="32" fill="url(#nebula)"/>

  <g fill="#ffffff" opacity="0.8">
    <circle cx="110" cy="110" r="2"/>
    <circle cx="160" cy="90" r="2"/>
    <circle cx="220" cy="120" r="2"/>
    <circle cx="420" cy="100" r="2"/>
    <circle cx="470" cy="140" r="2"/>
    <circle cx="380" cy="160" r="2"/>
  </g>

  <g transform="translate(210 110)">
    <rect x="20" y="0" width="100" height="16" rx="4" fill="#0d1a3a"/>
    <rect x="8" y="16" width="124" height="140" rx="8" fill="url(#tardis)"/>
    <rect x="8" y="16" width="124" height="26" rx="8" fill="#1d377f"/>
    <rect x="24" y="52" width="36" height="32" rx="4" fill="#c7e0ff"/>
    <rect x="80" y="52" width="36" height="32" rx="4" fill="#c7e0ff"/>
    <rect x="24" y="94" width="36" height="32" rx="4" fill="#c7e0ff"/>
    <rect x="80" y="94" width="36" height="32" rx="4" fill="#c7e0ff"/>
    <rect x="54" y="-10" width="32" height="10" rx="3" fill="#ffe08a"/>
    <rect x="62" y="-22" width="16" height="12" rx="3" fill="#ffd24b"/>
  </g>

  <g stroke="#7aa2ff" stroke-width="3" opacity="0.7">
    <path d="M120 250 C180 210, 240 260, 300 230 C360 200, 420 250, 480 220" fill="none"/>
    <path d="M140 280 C220 240, 300 290, 380 260" fill="none"/>
  </g>
</svg>
