<svg xmlns="http://www.w3.org/2000/svg" width="560" height="360" viewBox="0 0 560 360">
  <defs>
    <linearGradient id="frame" x1="0" y1="0" x2="1" y2="1">
      <stop offset="0%" stop-color="#f6fbff"/>
      <stop offset="100%" stop-color="#d7e6ff"/>
    </linearGradient>
    <linearGradient id="note" x1="0" y1="0" x2="0" y2="1">
      <stop offset="0%" stop-color="#467bff"/>
      <stop offset="100%" stop-color="#2742a9"/>
    </linearGradient>
  </defs>

  <rect x="50" y="50" width="460" height="260" rx="36" fill="url(#frame)"/>

  <g stroke="#c7d7ff" stroke-width="4" fill="none" opacity="0.8">
    <path d="M95 120 H465"/>
    <path d="M95 155 H465"/>
    <path d="M95 190 H465"/>
    <path d="M95 225 H465"/>
    <path d="M95 260 H465"/>
  </g>

  <g fill="url(#note)">
    <path d="M160 120 h16 v80 c0 18-12 30-30 30s-30-12-30-30 12-30 30-30c6 0 10 1 14 3v-53z"/>
    <path d="M270 105 h16 v95 c0 20-14 34-34 34s-34-14-34-34 14-34 34-34c7 0 12 1 18 4v-65z"/>
    <path d="M380 135 h16 v70 c0 18-12 30-30 30s-30-12-30-30 12-30 30-30c6 0 10 1 14 3v-43z"/>
  </g>

  <g fill="#87b0ff" opacity="0.8">
    <circle cx="120" cy="90" r="6"/>
    <circle cx="420" cy="100" r="8"/>
    <circle cx="470" cy="150" r="5"/>
    <circle cx="95" cy="240" r="4"/>
  </g>
</svg>
